PathFileType	4	(X/Y/Z)	OpenSim_Sub11_EMGPreOp_Accel.trc
DataRate	CameraRate	NumFrames	NumMarkers	Units	OrigDataRate	OrigDataStartFrame	OrigNumFrames
100	100	34	8	m	100	1472	5885
Frame#	Time	torso_imu_offset_imu	pelvis_imu_offset_imu	tibia_r_imu_offset_imu	femur_r_imu_offset_imu	tibia_l_imu_offset_imu	femur_l_imu_offset_imu	toes_r_imu_offset_imu	toes_l_imu_offset_imu
				X1	Y1	Z1	X2	Y2	Z2	X3	Y3	Z3	X4	Y4	Z4	X5	Y5	Z5	X6	Y6	Z6	X7	Y7	Z7	X8		Y8	Z8	

1472	14.71000000	8.33902377	-0.80528514	4.28312885	9.03391100	0.61945907	2.88661887	9.82981747	-0.09785665	0.90755100	9.28603103	1.02576155	-2.54885836	4.52993981	-5.72646091	0.70283270	7.81438293	2.28863807	1.04061853	4.59566829	-0.83273938	8.51244039	7.60469573	-0.52524656	6.06952651
1473	14.72000000	8.19788392	-0.84298462	4.29220462	8.93391517	0.69739986	2.84257866	9.78138647	0.15539859	1.14127927	9.42638524	0.99725993	-2.44692536	4.52817343	-4.33268663	1.15682232	7.57671380	2.41993059	1.04199070	4.43232101	-0.81086614	8.64569574	8.96462081	-1.57572800	5.80934623
1474	14.73000000	8.27430787	-0.88224165	4.33061692	8.87507093	0.74112374	2.81299944	9.74374791	0.28710168	1.21303688	9.52994101	0.89523384	-2.41949407	5.59972540	-2.35345479	2.19582446	7.42190055	2.58100788	0.97774663	5.08757642	-0.65745963	8.26111837	9.16190960	-1.43288446	5.57673314
1475	14.74000000	8.42702584	-0.87485891	4.36655423	8.83747791	0.80000686	2.80562908	9.74997488	0.26889208	1.17972207	9.60822688	0.68908404	-2.33827425	6.71774233	-0.54781574	2.85305098	7.27886388	2.82275998	0.93927824	4.83356739	-0.57111393	8.49283890	9.43710049	-0.82115153	5.24645104
1476	14.75000000	8.50908567	-0.83160719	4.41882106	8.95444787	0.81273934	2.82437703	9.86645998	0.24150823	1.18793364	9.62548683	0.48968379	-2.36885295	7.53504935	1.43400449	3.09890582	7.24802947	2.94370443	0.98416766	4.64369706	-0.64067341	8.77719953	10.13817890	-0.02037322	5.12157113
1477	14.76000000	8.59271923	-0.81139303	4.42171649	9.08335687	0.85228278	2.80577714	9.92366325	0.17085145	1.34084290	9.53124148	0.20522290	-2.39621349	8.15076800	2.36606294	3.25947723	7.38849024	2.98492500	1.09247513	4.25198561	-0.67923065	8.61495690	10.25670239	0.19395623	5.03956321
1478	14.77000000	8.64682301	-0.75417464	4.51510578	9.20136153	0.95581264	2.87008386	9.87562879	-0.03701038	1.42355739	9.40824033	0.00925921	-2.39447500	8.61037145	1.38030072	3.12501550	7.56128011	3.12510915	1.12512412	4.98036676	-0.57447344	8.55547200	9.78925204	0.42115900	5.33116591
1479	14.78000000	8.67828086	-0.71481743	4.58061799	9.26252500	1.00119879	2.87601895	9.83269532	-0.28316485	1.46901392	9.50057398	-0.07048165	-2.34536902	8.96158013	-0.46071472	2.65776762	7.59535890	3.28217046	1.16774660	4.55209685	-0.47363892	8.65152158	9.78600245	0.68115520	5.38682348
1480	14.79000000	8.73029529	-0.72444329	4.57734606	9.27928523	1.05166455	2.82216257	9.86935573	-0.38775350	1.46257734	9.68420063	-0.03478264	-2.36394735	9.36303002	-1.67176624	2.37950149	7.36297505	3.46517204	1.25142807	4.69994280	-0.58220143	8.58738774	10.37509554	1.09367739	5.55391445
1481	14.80000000	8.70591772	-0.78263979	4.52859645	9.18497326	1.17986365	2.75358815	9.85668611	-0.33466168	1.45569832	9.76164515	-0.01979174	-2.35823519	10.07396379	-2.50956643	1.74821389	7.17623681	3.46075121	1.25704416	4.73086534	-0.48002041	8.46080049	11.48576481	0.27645286	6.44219347
1482	14.81000000	8.75521939	-0.88025164	4.51183287	9.07825237	1.28755664	2.73689277	9.86285224	-0.25518611	1.40335002	9.78743407	0.08286291	-2.34137978	10.59747068	-3.71173817	0.62874636	7.28825522	3.38214156	0.89045068	4.70135303	-0.47647002	8.69425752	13.22722442	-1.52682300	6.76019296
1483	14.82000000	8.82458610	-0.95469497	4.54760923	8.99376780	1.34034326	2.75154686	9.90400882	-0.13608230	1.37150788	9.76595119	0.13107925	-2.31496656	10.98524811	-4.36556013	-0.09416062	7.71865998	3.34129673	0.65783038	4.58935565	-0.53946850	8.60486570	13.45287070	-2.63136524	6.42099934
1484	14.83000000	8.74191818	-1.03086155	4.53021259	8.98920062	1.31148784	2.70276405	9.89258469	-0.08865969	1.38010242	9.67048002	0.20802653	-2.35040600	11.29446594	-4.77139566	-0.59508640	8.05998700	3.29148056	0.63577700	4.37018530	-0.63249179	8.71650062	12.87248636	-4.05034324	5.89946630
1485	14.84000000	8.83167996	-1.11603212	4.50573057	8.99288386	1.25507312	2.68382983	9.87175734	-0.21620592	1.30244091	9.62382670	0.23812328	-2.39167169	11.46440103	-4.44484852	-0.79959455	8.44340322	3.10462687	0.64971159	4.97072928	-0.44896427	8.41142361	14.13107008	-5.79111539	4.55359774
1486	14.85000000	8.84864431	-1.18355087	4.44525625	9.00537445	1.18937503	2.64616384	9.91094633	-0.38329525	1.15467351	9.54630846	0.26791082	-2.45074605	11.53304613	-3.30463870	-0.34926190	9.12377200	3.13339570	0.65879315	4.76516840	-0.48377436	8.52225916	14.26572639	-4.80922879	4.19922023
1487	14.86000000	8.89725915	-1.24297687	4.46068252	9.04071468	1.11238538	2.63888203	9.96256053	-0.38693128	1.05849755	9.48110086	0.34416219	-2.50320239	11.54170468	-2.90137486	-0.00180282	9.57849345	3.69902010	0.75265089	4.50967345	-0.58043778	8.71697632	14.07666255	-4.07017373	3.16509171
1488	14.87000000	9.00901685	-1.23583654	4.55419962	9.11142617	1.01659671	2.62730297	9.95642728	-0.18789117	1.03655547	9.40158052	0.37791528	-2.53153846	11.12939709	-3.08053641	0.10971290	9.86416862	4.56170485	0.80477495	4.30529690	-0.63447073	8.67445899	14.15249859	-3.31651709	2.07981988
1489	14.88000000	9.04795623	-1.23866312	4.56979081	9.22045119	0.90197796	2.59100004	9.93956542	-0.06419632	1.10976776	9.30470372	0.44667382	-2.58402886	10.59595659	-2.90934894	0.60913355	10.10530677	5.23890145	0.71153658	5.00114209	-0.51794488	8.47363774	14.43611574	-2.94030812	1.00713063
1490	14.89000000	9.07469020	-1.22209682	4.59920701	9.28114914	0.84861358	2.53555936	9.92470993	-0.15596202	1.11312184	9.29807480	0.49670266	-2.57262428	10.27748846	-2.29438552	1.04843007	10.24605540	5.72469108	0.64571606	4.49056273	-0.53603832	8.66592375	14.50175372	-2.41757159	0.00009322
1491	14.90000000	9.06302680	-1.19460426	4.64215978	9.31804009	0.80616289	2.53551776	9.96751034	-0.14465037	1.12837884	9.31630497	0.55845878	-2.62612834	9.94362783	-1.49330985	1.04267218	10.16493243	6.10110958	0.82584259	4.65013709	-0.60556717	8.61685122	14.26617657	-1.79294949	-0.74074286
1492	14.91000000	9.02638280	-1.19594949	4.68809416	9.39267886	0.82834073	2.56366835	9.94743345	-0.17192584	1.14193749	9.41127567	0.53857653	-2.61196049	9.72169603	-0.82869185	0.73254933	9.87240955	6.24342620	1.00144814	4.67010339	-0.47991016	8.48164979	13.99404885	-1.34989076	-1.15191825
1493	14.92000000	9.03611181	-1.15366669	4.69770872	9.42080236	0.84600598	2.57644311	9.92631028	-0.26432453	1.09927347	9.48655567	0.51470146	-2.58795592	9.70596997	-0.52143935	0.32422225	9.46250950	6.11372284	1.17599303	4.81859974	-0.40625816	8.61118939	14.00717662	-1.69593140	-0.88224149
1494	14.93000000	9.02555295	-1.14363546	4.74307250	9.43255439	0.86062238	2.51103884	9.96201888	-0.29499481	1.05836317	9.54934495	0.40910538	-2.63093492	9.75009207	-0.56380119	-0.09997935	9.01287892	5.90132090	1.24556687	4.42087706	-0.54444793	8.64230311	13.93395471	-0.57395086	-1.57041067
1495	14.94000000	8.96190821	-1.14188818	4.74764748	9.44542831	0.92378916	2.48369702	10.01115365	-0.23174417	1.11980755	9.53107513	0.37960960	-2.65640826	9.92269027	-0.88957593	-0.37474592	8.61511523	5.46599505	1.27250917	4.40720966	-0.55658693	8.71120774	10.19080514	4.32576069	2.62421504
1496	14.95000000	8.93844650	-1.09577567	4.80582304	9.41089081	0.94379908	2.67357144	9.95338910	-0.13649783	1.13706394	9.44343595	0.31829624	-2.66361951	10.57583945	-0.79404526	0.27033757	8.42459054	5.04259691	1.22388424	4.80961321	-0.41501683	8.43488643	5.84477615	-2.29446911	9.48258473
1497	14.96000000	9.02978252	-1.08302564	4.87958138	9.45261649	0.82712016	2.78861324	9.93596776	-0.14302136	0.99846385	9.43940969	0.45991963	-2.65499792	11.22911325	1.32443369	2.69669824	8.63607402	4.67293358	1.09016395	4.96034032	-0.33747231	8.53385553	5.71774559	-11.66182383	5.54507082
1498	14.97000000	9.13200706	-1.04118086	4.95279258	9.48999973	0.58851522	2.80776592	10.00596593	-0.05903398	0.84700087	9.35612599	0.61984695	-2.64200008	11.30591264	3.48419876	4.89110459	9.27612548	4.43055071	0.80000723	4.34597938	-0.45133920	8.73915581	-0.59026177	0.51408233	15.11802926
1499	14.98000000	9.16450773	-0.96765527	4.98136885	9.47410287	0.54314474	2.82354616	10.01261151	0.25689247	0.75743720	9.12541011	0.38670585	-2.63871081	10.55585571	4.42604873	5.76345283	10.00234151	4.30356693	0.46636850	4.13674968	-0.63152368	8.69791073	-0.98551863	1.93559752	18.57034131
1500	14.99000000	9.16812203	-0.87529472	5.01319094	9.45817989	0.56443601	2.70525238	9.94692674	0.53072403	0.81683008	8.98686784	0.50979033	-2.67629655	9.92686756	6.29888047	6.46394164	10.49883779	3.99376798	0.22103617	4.76210594	-0.40367672	8.58000494	1.92726108	-7.02129673	7.35273437
1501	15.00000000	8.98958290	-0.86510005	5.02482861	9.37708925	0.64059079	2.48319875	9.87999411	0.64908134	0.87697202	8.94567072	0.74032266	-2.63376747	9.78538300	6.73630946	6.43171293	10.35378264	3.56883224	0.16806400	4.51737220	-0.49397026	8.66707738	6.26621800	-7.40865788	7.05046106
1502	15.01000000	8.81884746	-0.91725166	4.87706070	9.32243780	0.77751396	2.55374989	9.80599154	0.86359261	0.99306817	8.98773452	0.91549995	-2.72424025	8.91017879	4.40539504	5.02269757	9.87875692	3.17378039	0.48203685	4.55952385	-0.62045347	8.58294802	8.85774021	-5.53419504	9.53831471
1503	15.02000000	8.79125725	-0.91636576	4.85909596	9.27580337	0.95162493	2.63027168	9.74488135	1.13802041	1.10316447	9.16113459	1.07813937	-2.71191768	8.92164242	1.28576301	2.69094573	9.61652648	2.99048570	1.28781237	4.64247549	-0.42892543	8.55169614	6.26552613	-5.31937959	7.76015619
1504	15.03000000	8.91535290	-0.93697659	4.87572709	9.31965108	1.03645435	2.63170000	9.73739514	1.16577462	1.09079413	9.31952296	1.19445590	-2.72891511	10.29032622	-1.99598761	1.17738420	9.76073968	3.13120822	2.34346731	4.86176075	-0.35851737	8.62176804	5.41461378	-1.94053521	7.86432063
1505	15.04000000	8.99099932	-0.83954366	4.85422116	9.39992219	1.07408824	2.55904365	9.85151165	1.01394326	1.08967343	9.34829578	1.25318290	-2.72803952	10.64419073	-4.36041333	1.16276610	10.18182615	3.50821048	2.83691642	4.52421099	-0.42721547	8.66107777	6.58007232	1.54163717	8.47328645
